<?xml version="1.0" encoding="utf-8"?>
<!-- Generator: Adobe Illustrator 27.2.0, SVG Export Plug-In . SVG Version: 6.00 Build 0)  -->
<svg version="1.1" id="Capa_1" xmlns="http://www.w3.org/2000/svg" xmlns:xlink="http://www.w3.org/1999/xlink" x="0px" y="0px"
	 viewBox="0 0 816 1021.5" style="enable-background:new 0 0 816 1021.5;" xml:space="preserve">
<style type="text/css">
	.st0{fill:#2A317D;}
	.st1{fill:#CD2822;}
</style>
<g>
	<g>
		<g>
			<g>
				<circle class="st0" cx="511.9" cy="214.3" r="8.7"/>
				<path class="st0" d="M806.3,264.4L663.7,66.6L523.2,167.9V4.4H423V185l4.5,0c0,0,73.1-1.2,89.6,0s48.5,24.2,38.9,48.3
					c-6,15.1-24.7,17.7-24.7,17.7H423v71.2l78.7,39.6c0,0,16.7,11.4,0,21.2l-52,23.2l-26.7-12v39.7l90.5-41.5l-6.5,69.5L423,504.8
					v18.6l71.6-35.5l-13,75.4L423,595.1v14.8l83.9,39.4h-81.5l-2.4-1.5v132.6h100.1V616.9l140.5,101.3l142.7-197.9l-177.5-128
					L806.3,264.4z"/>
			</g>
			<path class="st1" d="M357.6,568c0,0-4.4-11.5,9.4-18.9l12.4-6.1v-18l-21.8,11.1c0,0-8,5-9.4,13c0,0-23.3-59.2-11.8-69.5
				c0,0,14.5-14.7,43-27.5v-75.8l-66.6-29.9c0,0-38-14.9-30.6-49.5c8.6-40.2,30.6-28.3,30.6-28.3l66.6,33.5v-56.9
				c-30.8,0.2-59,1.7-76,5.7c-5.8,1.4-21.2,10.6-21.2,10.6c5.9-67.2,47.1-77.1,47.1-77.1l50.1,0.3V4.4H279.2v266h-266v243.9h266v266
				h100.2V615.1L357.6,568z"/>
		</g>
	</g>
	<g>
		<path class="st1" d="M96.7,873.8c-1.2,0.4-2.5,0.6-3.8,0.6c-1.9,0-3.2-0.4-4-1.1c-0.8-0.7-1.3-1.5-1.6-2.3
			c-3.1-7.7-7.1-13.2-12-16.6c-4.9-3.4-11.5-5.1-19.7-5.1c-6.5,0-12,1.6-16.5,4.8c-4.5,3.2-6.8,8-6.8,14.5c0,5,1.7,9,5.2,12
			c3.4,3,7.8,5.7,13,8c5.2,2.3,10.8,4.5,16.8,6.7c6,2.2,11.6,4.9,16.8,8.1c5.2,3.2,9.5,7.4,13,12.3c3.4,5,5.2,11.4,5.2,19.2
			c0,5.1-0.9,10.1-2.6,15c-1.8,4.9-4.5,9.1-8.3,12.9c-3.8,3.7-8.6,6.7-14.4,8.9c-5.8,2.2-12.7,3.3-20.8,3.3c-8.9,0-16.9-1-23.9-2.9
			c-7-1.9-12.8-4-17.4-6.2c-0.4-5.8-1-11.5-1.9-17.1c-0.9-5.6-1.9-11-2.9-16.3c1.3-0.5,2.9-0.8,4.7-0.8c1.6,0,2.8,0.3,3.6,0.9
			c0.8,0.6,1.5,1.7,2,3.1c1.8,5.1,3.7,9.5,5.9,13.3c2.2,3.7,4.7,6.7,7.5,9.1c2.8,2.4,6.1,4.1,9.8,5.2c3.7,1.1,8,1.6,12.9,1.6
			c4.2,0,7.8-0.6,10.7-1.7c3-1.1,5.4-2.7,7.3-4.6c1.9-1.9,3.3-4.1,4.2-6.7c0.9-2.6,1.4-5.2,1.4-7.9c0-5.8-1.7-10.4-5-13.7
			c-3.3-3.3-7.4-6.1-12.3-8.3c-4.9-2.2-10.3-4.3-16-6.3c-5.7-2-11.1-4.5-16-7.5c-4.9-3-9-7-12.3-11.8c-3.3-4.8-5-11.3-5-19.4
			c0-5.4,1-10.4,2.9-15.1c2-4.7,4.8-8.7,8.6-12.2c3.8-3.4,8.3-6.2,13.7-8.2c5.3-2,11.4-3,18.3-3c5.7,0,11.4,0.6,17.1,1.8
			c5.7,1.2,12.2,3.2,19.5,6.1c0.3,4,0.7,8.6,1.3,13.7C95.2,865.2,95.9,869.8,96.7,873.8z"/>
		<path class="st1" d="M104,906.8c0-9.4,1.8-18.3,5.4-26.5c3.6-8.2,8.5-15.4,14.7-21.7c6.2-6.2,13.5-11.1,21.8-14.7
			c8.3-3.6,17.2-5.4,26.6-5.4c9.7,0,18.8,1.7,27.1,5.1c8.4,3.4,15.6,8.1,21.8,14.2c6.1,6.1,11,13.3,14.5,21.7
			c3.5,8.4,5.3,17.5,5.3,27.3c0,9.4-1.8,18.3-5.4,26.6c-3.6,8.3-8.5,15.5-14.7,21.7c-6.2,6.1-13.5,11-21.9,14.6
			c-8.4,3.6-17.3,5.4-26.7,5.4c-9.7,0-18.8-1.7-27.1-5.1c-8.4-3.4-15.6-8.1-21.7-14.2c-6.1-6.1-10.9-13.3-14.4-21.6
			C105.7,925.9,104,916.8,104,906.8z M175.4,964.5c5.7,0,10.8-1.2,15.4-3.7c4.6-2.5,8.5-5.9,11.8-10.2c3.3-4.3,5.9-9.4,7.7-15.2
			c1.8-5.8,2.7-12,2.7-18.6c0-9.6-0.9-18.5-2.7-26.7c-1.8-8.2-4.6-15.3-8.3-21.4c-3.7-6-8.4-10.7-14-14.2
			c-5.6-3.4-12.1-5.2-19.5-5.2c-4.7,0-9.3,1-13.8,3.1c-4.5,2.1-8.4,5.1-11.7,9.1c-3.4,4-6.1,8.8-8.1,14.5c-2,5.7-3,12.1-3,19.2
			c0,10,1,19.2,2.9,27.7c2,8.5,4.8,15.8,8.5,22c3.7,6.1,8.3,10.9,13.7,14.4C162.4,962.8,168.5,964.5,175.4,964.5z"/>
		<path class="st1" d="M285.5,955.4c0,2.8,1.8,4.7,5.5,5.7c3.6,0.9,9.6,1.4,18,1.4h7.7c3.4,0,6.3-0.4,8.8-1.1c2.5-0.7,4.7-2,6.6-3.7
			c1.9-1.8,3.6-4,5.2-6.8c1.6-2.8,3.1-6.1,4.6-10c0.4-1.1,1.4-1.6,3-1.6c0.7,0,1.5,0.2,2.4,0.6c0.9,0.4,1.9,0.8,2.8,1.2
			c-1.1,4.3-2.1,9-2.9,14.1c-0.9,5.1-1.7,10-2.3,14.9c-0.1,1.6-0.6,2.6-1.3,3c-0.7,0.4-1.5,0.6-2.3,0.6c-1.1,0-2.6-0.1-4.6-0.2
			c-2-0.1-4.1-0.2-6.4-0.3c-2.3-0.1-4.6-0.2-7-0.3c-2.4-0.1-4.4-0.2-6.2-0.2h-45.9c-3.9,0-8.4,0.1-13.5,0.3
			c-5.1,0.2-9.6,0.4-13.7,0.7c-0.3-0.5-0.4-1.2-0.4-2.1c0-0.9,0-1.5,0-1.9c0-2,0.7-3.1,2-3.2c5.1-0.9,8.8-2,11-3
			c2.2-1.1,3.3-3,3.3-5.7V856.2c0-1.3-0.1-2.5-0.4-3.3c-0.3-0.9-0.8-1.7-1.6-2.3c-0.8-0.7-2.1-1.2-3.7-1.7c-1.7-0.5-3.9-0.9-6.8-1.3
			c-1.4-0.4-2-1.6-2-3.4c0-0.4,0-1,0-1.8c0-0.8,0.1-1.6,0.4-2.2c4.3,0.3,8.9,0.5,13.8,0.7c4.9,0.2,9.2,0.3,13,0.3c1.9,0,4,0,6.5-0.1
			c2.4-0.1,5-0.1,7.6-0.2c2.6-0.1,5.3-0.2,7.9-0.3c2.6-0.1,5-0.3,7.2-0.4c0.1,0.7,0.2,1.4,0.3,2.2c0.1,0.8,0.1,1.4,0.1,1.8
			c0,1.9-0.7,3-2,3.4c-5.8,0.8-9.7,1.9-11.6,3.1c-2,1.3-2.9,3.3-2.9,6V955.4z"/>
		<path class="st1" d="M361.4,856.2c0-1.3-0.1-2.5-0.4-3.3c-0.3-0.9-0.8-1.7-1.6-2.3c-0.8-0.7-2.1-1.2-3.7-1.7
			c-1.7-0.5-3.9-0.9-6.8-1.3c-1.4-0.4-2-1.6-2-3.4c0-0.4,0-1,0-1.8c0-0.8,0.1-1.6,0.4-2.2c4.3,0.3,8.9,0.5,13.9,0.7
			c4.9,0.2,9.3,0.3,13.3,0.3c3.8,0,8.1-0.1,13-0.3c4.9-0.2,9.4-0.4,13.8-0.7c0.1,0.7,0.2,1.4,0.3,2.2c0.1,0.8,0.1,1.4,0.1,1.8
			c0,1.9-0.7,3-2,3.4c-2.8,0.4-5.1,0.8-6.8,1.3c-1.7,0.5-3,1-3.8,1.7c-0.9,0.7-1.4,1.5-1.6,2.3c-0.2,0.9-0.3,2-0.3,3.3v87.6
			c0,9.4-0.6,17.5-1.9,24.2c-1.3,6.7-3.5,12.7-6.6,18.1c-3.1,5.4-7.4,10.5-12.9,15.3c-5.5,4.8-12.3,10-20.5,15.7
			c-1.1-0.9-2-1.8-2.7-2.6c-0.7-0.8-1.1-1.6-1.1-2.4c0-1.1,0.3-2,1-2.6c3.8-3.6,6.9-7.2,9.3-10.5c2.4-3.4,4.4-6.9,5.9-10.4
			c1.5-3.6,2.5-7.4,3.1-11.3c0.6-4,0.9-8.3,0.9-13.1V856.2z"/>
		<path class="st1" d="M471.5,928H429l-10.5,28.1c-0.4,0.7-0.7,1.4-0.8,2.2c-0.1,0.8-0.2,1.4-0.2,1.8c0,1.5,0.7,2.7,2.1,3.6
			c1.4,0.9,4.3,1.8,8.6,2.4c1.9,0.3,2.8,1.6,2.8,3.8c0,0.9-0.1,2.1-0.4,3.4c-3.6-0.3-7.5-0.5-11.5-0.7c-4-0.2-8-0.3-11.9-0.3
			c-2.7,0-5.5,0.1-8.5,0.2c-3,0.1-6.3,0.4-9.9,0.8c-0.3-0.5-0.4-1.1-0.4-1.8c0-0.7,0-1.2,0-1.6c0-2.6,0.9-3.9,2.6-4
			c4.2-0.8,7.2-1.7,9-2.6c1.8-0.9,3.3-2.6,4.4-4.9L453.1,842c1.1-2.3,2.7-3.4,4.9-3.4c0.7,0,1.3,0,2,0.1c0.7,0.1,1.4,0.2,2.2,0.3
			L511,959.2c0.8,2,2.4,3.5,4.7,4.6c2.3,1,4.8,1.7,7.5,2.1c2,0.4,3,1.8,3,4c0,1.1-0.1,2.3-0.4,3.6c-4.3-0.3-8.6-0.5-12.8-0.7
			c-4.2-0.2-8.1-0.3-11.7-0.3c-1.9,0-4.2,0-6.9,0.1c-2.7,0.1-5.5,0.2-8.3,0.3c-2.8,0.1-5.6,0.2-8.4,0.3c-2.8,0.1-5.1,0.2-7,0.3
			c-0.3-0.5-0.4-1.1-0.4-1.8c0-0.7,0-1.2,0-1.6c0-1.2,0.2-2.1,0.7-2.7c0.5-0.6,1-1,1.5-1.1c3.5-0.7,6.1-1.4,7.8-2.3
			c1.7-0.9,2.5-2.2,2.5-3.9c0-0.8-0.2-1.8-0.6-3L471.5,928z M467.7,917.9l-17.2-45.5l-17.6,45.5H467.7z"/>
		<path class="st1" d="M579.8,975c-11.3,0-21.3-1.8-29.8-5.3c-8.5-3.5-15.5-8.3-21.1-14.5c-5.5-6.1-9.7-13.4-12.4-21.7
			c-2.8-8.3-4.1-17.2-4.1-26.8c0-8,1.3-16,4-24.1c2.7-8.1,6.9-15.4,12.8-22c5.8-6.5,13.2-11.9,22.3-16c9-4.1,19.8-6.2,32.4-6.2
			c6.9,0,13.3,0.5,19.3,1.4c6,0.9,12.5,2.4,19.5,4.2c0.3,3.6,0.8,8.3,1.6,14c0.8,5.7,2,11.2,3.4,16.6c-0.7,0.1-1.6,0.3-2.6,0.5
			c-1.1,0.2-1.9,0.3-2.4,0.3c-1.1,0-2-0.2-2.7-0.5c-0.7-0.3-1.2-1-1.5-2.1c-1.5-4.5-3.2-8.2-5.1-11.2c-1.9-3-4.2-5.5-6.8-7.3
			c-2.6-1.8-5.7-3.1-9.2-3.9c-3.5-0.8-7.6-1.2-12.3-1.2c-7.3,0-13.7,1.2-19.3,3.7c-5.6,2.5-10.3,6.1-14.1,10.7
			c-3.8,4.7-6.6,10.3-8.6,16.8c-2,6.5-2.9,13.9-2.9,22.2c0,8.8,1.2,16.9,3.5,24.5c2.4,7.6,5.6,14.1,9.7,19.6c4.1,5.5,9,9.9,14.7,13
			c5.7,3.1,11.8,4.7,18.4,4.7c5.4,0,10-0.5,13.9-1.5c3.8-1,7.2-2.6,9.9-4.7c2.8-2.1,5.1-4.8,7.1-8c2-3.2,3.7-7,5.4-11.3
			c0.4-1.1,1-1.9,1.9-2.3c0.9-0.5,1.8-0.7,2.7-0.7c0.7,0,1.5,0.1,2.5,0.3c1,0.2,1.9,0.4,2.5,0.7c-0.8,2.3-1.7,4.9-2.5,7.8
			c-0.9,2.9-1.8,5.9-2.7,8.9c-0.9,3-1.8,6.1-2.5,9.1c-0.7,3-1.4,6-1.9,8.8c-6.6,1.2-13.4,2.1-20.2,2.6
			C595.6,974.7,588,975,579.8,975z"/>
	</g>
	<g>
		<path class="st0" d="M710.4,908.5c0.3-0.6,0.7-1.1,1.4-1.5c0.6-0.4,2.2-0.5,4.6-0.5c0.6,0,1.4,0,2.5-0.1c1.1,0,2.3-0.1,3.5-0.1
			c1.3,0,2.5-0.1,3.8-0.2c1.3-0.1,2.4-0.1,3.3-0.2c0.1,0.4,0.2,0.7,0.2,1.1c0,0.4,0,0.6,0,0.8c0,1.1-0.4,1.8-1.2,2
			c-1.4,0.2-2.5,0.4-3.3,0.6c-0.8,0.2-1.4,0.5-1.8,0.8c-0.4,0.3-0.7,0.7-0.8,1.1c-0.1,0.4-0.2,0.9-0.2,1.5c0,0.1,0.1,1.5,0.2,4
			c0.1,2.5,0.3,5.7,0.5,9.4c0.2,3.7,0.4,7.8,0.6,12.1c0.2,4.4,0.4,8.5,0.6,12.4c0.2,3.9,0.4,7.3,0.5,10.2c0.1,2.9,0.2,4.6,0.3,5.3
			c0,0.7,0.1,1.3,0.3,1.7c0.2,0.5,0.5,0.9,1,1.2c0.5,0.4,1.1,0.7,1.9,0.9c0.8,0.2,1.9,0.5,3.3,0.7c0.8,0.1,1.2,0.8,1.2,2
			c0,0.5-0.1,1.1-0.2,1.8c-2.5-0.1-4.7-0.3-6.7-0.4c-2-0.1-4.3-0.2-6.8-0.2c-2.3,0-4.8,0.1-7.4,0.2c-2.6,0.1-4.8,0.2-6.6,0.4
			c-0.1-0.7-0.2-1.3-0.2-1.8c0-0.8,0.1-1.3,0.4-1.6c0.2-0.3,0.5-0.4,0.7-0.4c2.9-0.5,4.7-1.1,5.6-1.7c0.8-0.7,1.3-1.7,1.3-3.1
			c0-0.2-0.1-1.3-0.2-3.4c-0.1-2-0.2-4.6-0.3-7.6c-0.1-3-0.2-6.3-0.4-9.8c-0.2-3.5-0.4-6.8-0.5-9.9c-0.2-3.1-0.3-5.8-0.4-8
			c-0.1-2.3-0.2-3.6-0.3-4.1l-21.6,50.3c-0.4,0.6-0.7,1.1-0.9,1.4c-0.2,0.3-0.6,0.5-1,0.5c-0.1,0-0.4,0-0.6,0c-0.3,0-0.5,0-0.6-0.1
			l-24.5-58.7c-0.1,0.9-0.2,2.8-0.3,5.5c-0.1,2.8-0.2,6-0.4,9.5c-0.2,3.6-0.4,7.4-0.5,11.3c-0.2,4-0.3,7.6-0.5,11
			c-0.1,3.4-0.3,6.2-0.4,8.5c-0.1,2.3-0.2,3.5-0.2,3.7c0,0.6,0.1,1.2,0.2,1.6c0.1,0.5,0.4,0.9,0.8,1.2c0.4,0.4,1.1,0.7,1.9,0.9
			c0.8,0.2,2,0.5,3.5,0.8c0.8,0.1,1.2,0.8,1.2,2c0,0.2,0,0.5-0.1,0.8c0,0.3-0.1,0.6-0.2,1c-1.9-0.1-3.7-0.3-5.3-0.4
			c-1.6-0.1-3.2-0.2-4.9-0.2c-1.4,0-3.2,0.1-5.3,0.2c-2.1,0.1-4,0.2-5.7,0.4c-0.1-0.3-0.2-0.6-0.2-0.9c0-0.4,0-0.6,0-0.8
			c0-0.8,0.1-1.3,0.3-1.5c0.2-0.2,0.5-0.4,0.8-0.5c2.2-0.5,3.8-1.1,4.7-1.7c1-0.6,1.5-1.6,1.7-2.8c0-0.6,0.1-2.3,0.2-5.1
			c0.1-2.8,0.3-6.2,0.5-10.1c0.2-3.9,0.4-8.1,0.6-12.4c0.2-4.4,0.4-8.5,0.6-12.2c0.2-3.8,0.3-6.9,0.4-9.4c0.1-2.5,0.2-3.9,0.2-4
			c0-1.2-0.4-2.1-1.2-2.6c-0.8-0.5-2.5-1-5.1-1.4c-0.8-0.1-1.2-0.7-1.2-2c0-0.2,0-0.5,0-0.8c0-0.4,0.1-0.7,0.2-1.1
			c0.9,0.1,2.2,0.1,3.8,0.2c1.6,0.1,3.3,0.1,5,0.2c1.7,0,3.3,0.1,4.7,0.1c1.5,0,2.5,0.1,3.2,0.1c1.3,0,2.3,0.1,3,0.2
			c0.7,0.1,1.3,0.2,1.7,0.4c0.4,0.1,0.7,0.4,0.9,0.6c0.2,0.3,0.3,0.6,0.5,0.8l19.6,47.4L710.4,908.5z"/>
		<path class="st0" d="M805.6,940.8c0,4.2-0.7,8.3-2.1,12.3c-1.4,4.1-3.6,7.8-6.5,11c-3,3.3-6.7,5.9-11.3,7.9c-4.6,2-10,3-16.2,3
			h-21.6c-1.8,0-4,0.1-6.4,0.2c-2.4,0.1-4.7,0.2-6.9,0.4c-0.1-0.3-0.2-0.6-0.2-0.9c0-0.4,0-0.6,0-0.8c0-0.8,0.1-1.3,0.4-1.5
			c0.2-0.2,0.5-0.4,0.9-0.5c2-0.4,3.7-0.8,4.9-1.4c1.2-0.6,1.8-1.6,1.8-3.1v-52.9c0-1.4-0.5-2.4-1.5-3c-1-0.6-2.8-1.1-5.2-1.5
			c-0.6-0.1-0.9-0.4-1.1-0.7c-0.1-0.3-0.2-0.8-0.2-1.3c0-0.2,0-0.5,0-0.8c0-0.4,0.1-0.7,0.2-1.1c1.5,0.1,2.8,0.2,4,0.3
			c1.2,0,2.2,0.1,3.2,0.2c1,0.1,2,0.1,3,0.1c1,0,2,0,3.1,0h21.4c6,0,11.2,0.9,15.8,2.7c4.5,1.8,8.3,4.3,11.4,7.4
			c3.1,3.1,5.4,6.7,7,10.9C804.8,931.7,805.6,936.1,805.6,940.8z M791.1,942.8c0-5.5-0.6-10.2-1.9-14.1c-1.3-3.9-3.1-7.2-5.5-9.7
			c-2.4-2.5-5.5-4.3-9.1-5.5c-3.6-1.2-7.8-1.7-12.4-1.7h-6.5V966c0,0.7,0.1,1.3,0.3,1.8c0.2,0.5,0.6,0.9,1.3,1.2
			c0.6,0.3,1.5,0.5,2.6,0.6c1.1,0.1,2.6,0.2,4.5,0.2c9.1,0,15.9-2.4,20.2-7.3C788.9,957.7,791.1,951.1,791.1,942.8z"/>
	</g>
</g>
</svg>
